<svg width="293" height="47" viewBox="0 0 293 47" fill="none" xmlns="http://www.w3.org/2000/svg">
<path d="M23.8571 23.4355C23.8571 26.5828 21.2902 29.1498 18.1429 29.1498C14.9955 29.1498 12.4286 26.5828 12.4286 23.4355C12.4286 20.2882 14.9955 17.7212 18.1429 17.7212C21.2902 17.7212 23.8571 20.2882 23.8571 23.4355ZM26.9375 23.4355C26.9375 18.5694 23.0089 14.6408 18.1429 14.6408C13.2768 14.6408 9.34821 18.5694 9.34821 23.4355C9.34821 28.3015 13.2768 32.2301 18.1429 32.2301C23.0089 32.2301 26.9375 28.3015 26.9375 23.4355ZM29.3482 14.2837C29.3482 13.1453 28.433 12.2301 27.2946 12.2301C26.1562 12.2301 25.2411 13.1453 25.2411 14.2837C25.2411 15.4221 26.1562 16.3373 27.2946 16.3373C28.433 16.3373 29.3482 15.4221 29.3482 14.2837ZM18.1429 9.37298C20.6429 9.37298 26 9.17208 28.2545 10.0649C29.0357 10.3774 29.6161 10.7569 30.2188 11.3596C30.8214 11.9623 31.2009 12.5426 31.5134 13.3239C32.4063 15.5783 32.2054 20.9355 32.2054 23.4355C32.2054 25.9355 32.4063 31.2926 31.5134 33.5471C31.2009 34.3283 30.8214 34.9087 30.2188 35.5114C29.6161 36.114 29.0357 36.4935 28.2545 36.806C26 37.6989 20.6429 37.498 18.1429 37.498C15.6429 37.498 10.2857 37.6989 8.03125 36.806C7.25 36.4935 6.66964 36.114 6.06696 35.5114C5.46429 34.9087 5.08482 34.3283 4.77232 33.5471C3.87946 31.2926 4.08036 25.9355 4.08036 23.4355C4.08036 20.9355 3.87946 15.5783 4.77232 13.3239C5.08482 12.5426 5.46429 11.9623 6.06696 11.3596C6.66964 10.7569 7.25 10.3774 8.03125 10.0649C10.2857 9.17208 15.6429 9.37298 18.1429 9.37298ZM35.2857 23.4355C35.2857 21.0694 35.308 18.7257 35.1741 16.3596C35.0402 13.614 34.4152 11.181 32.4063 9.17208C30.3973 7.16315 27.9643 6.53815 25.2188 6.40423C22.8527 6.2703 20.5089 6.29262 18.1429 6.29262C15.7768 6.29262 13.433 6.2703 11.067 6.40423C8.32143 6.53815 5.88839 7.16315 3.87946 9.17208C1.87054 11.181 1.24554 13.614 1.11161 16.3596C0.977679 18.7257 1 21.0694 1 23.4355C1 25.8015 0.977679 28.1453 1.11161 30.5114C1.24554 33.2569 1.87054 35.6899 3.87946 37.6989C5.88839 39.7078 8.32143 40.3328 11.067 40.4667C13.433 40.6007 15.7768 40.5783 18.1429 40.5783C20.5089 40.5783 22.8527 40.6007 25.2188 40.4667C27.9643 40.3328 30.3973 39.7078 32.4063 37.6989C34.4152 35.6899 35.0402 33.2569 35.1741 30.5114C35.308 28.1453 35.2857 25.8015 35.2857 23.4355Z" fill="black"/>
<path d="M88.7305 6.95557C88.2031 6.87744 86.3867 6.72119 84.2773 6.72119C79.8633 6.72119 76.8359 9.4165 76.8359 14.3579V18.6157H71.8555V24.397H76.8359V39.2212H82.8125V24.397H87.7734L88.5352 18.6157H82.8125V14.9243C82.8125 13.2642 83.2617 12.1118 85.6641 12.1118H88.7305V6.95557Z" fill="black"/>
<path d="M149.156 30.4444C149.156 31.0694 148.665 31.5158 148.107 31.5158C147.817 31.5158 147.638 31.4265 147.371 31.2703C144.893 29.7748 141.79 28.9712 138.509 28.9712C136.656 28.9712 134.826 29.2167 133.085 29.5739C132.817 29.6408 132.46 29.7524 132.259 29.7524C131.589 29.7524 131.165 29.2167 131.165 28.6587C131.165 27.9444 131.589 27.6096 132.103 27.498C134.223 27.0292 136.321 26.739 138.509 26.739C142.259 26.739 145.607 27.5873 148.487 29.306C148.911 29.5739 149.156 29.8194 149.156 30.4444ZM151.299 25.6453C151.299 26.3819 150.719 26.9846 149.96 26.9846C149.603 26.9846 149.357 26.8283 149.112 26.6944C146.321 25.0426 142.46 23.9265 138.219 23.9265C136.054 23.9265 134.179 24.239 132.616 24.6632C132.281 24.7524 132.103 24.8417 131.79 24.8417C131.054 24.8417 130.451 24.239 130.451 23.5024C130.451 22.7658 130.808 22.2748 131.522 22.0739C133.442 21.5382 135.406 21.1364 138.286 21.1364C142.772 21.1364 147.103 22.2524 150.518 24.2837C151.076 24.6185 151.299 25.0426 151.299 25.6453ZM153.71 20.1096C153.71 21.0471 152.951 21.7167 152.103 21.7167C151.746 21.7167 151.522 21.6274 151.21 21.4489C148.107 19.5962 143.286 18.5694 138.643 18.5694C136.299 18.5694 133.955 18.7926 131.79 19.3953C131.545 19.4623 131.232 19.5739 130.897 19.5739C129.982 19.5739 129.29 18.8596 129.29 17.9444C129.29 17.0069 129.871 16.4712 130.496 16.2926C132.929 15.5783 135.652 15.2435 138.621 15.2435C143.665 15.2435 148.955 16.2926 152.817 18.5471C153.353 18.8596 153.71 19.2837 153.71 20.1096ZM158.286 23.4355C158.286 13.9712 150.607 6.29262 141.143 6.29262C131.679 6.29262 124 13.9712 124 23.4355C124 32.8998 131.679 40.5783 141.143 40.5783C150.607 40.5783 158.286 32.8998 158.286 23.4355Z" fill="black"/>
<path d="M214.674 31.2033C214.674 30.2212 214.384 29.7078 213.804 29.7078C213.469 29.7078 213.134 29.864 212.799 30.1989V36.9176C213.134 37.2524 213.469 37.4087 213.804 37.4087C214.384 37.4087 214.674 36.9176 214.674 35.9132V31.2033ZM222.219 31.2257C222.219 30.2212 221.884 29.7078 221.214 29.7078C220.545 29.7078 220.21 30.2212 220.21 31.2257V32.2524H222.219V31.2257ZM200.656 26.3596V39.0605H198.424V26.3596H196.08V24.2614H203.045V26.3596H200.656ZM207.085 39.0605V37.8551C206.281 38.7703 205.522 39.2167 204.808 39.2167C204.161 39.2167 203.692 38.9489 203.513 38.3908C203.402 38.056 203.335 37.5426 203.335 36.7614V28.0337H205.321V36.1587C205.321 36.6274 205.321 36.873 205.344 36.9399C205.388 37.2524 205.545 37.4087 205.812 37.4087C206.214 37.4087 206.638 37.0962 207.085 36.4712V28.0337H209.071V39.0605H207.085ZM216.661 35.7569C216.661 36.7837 216.616 37.5203 216.46 37.989C216.214 38.7926 215.656 39.2167 214.875 39.2167C214.161 39.2167 213.469 38.8149 212.799 37.989V39.0605H210.813V24.2614H212.799V29.1051C213.446 28.3015 214.138 27.8998 214.875 27.8998C215.656 27.8998 216.214 28.3239 216.46 29.1498C216.616 29.5962 216.661 30.3328 216.661 31.3596V35.7569ZM224.205 35.5337C224.205 36.181 224.205 36.6274 224.161 36.8283C224.116 37.2748 223.938 37.6765 223.692 38.0337C223.156 38.8149 222.33 39.2167 221.281 39.2167C220.232 39.2167 219.451 38.8373 218.871 38.0783C218.446 37.5426 218.223 36.6721 218.223 35.489V31.6274C218.223 30.4444 218.424 29.5962 218.848 29.0382C219.429 28.2792 220.21 27.8998 221.237 27.8998C222.241 27.8998 223.022 28.2792 223.603 29.0382C224.004 29.5962 224.205 30.4444 224.205 31.6274V33.9265H220.21V35.8685C220.21 36.8953 220.545 37.4087 221.237 37.4087C221.728 37.4087 222.018 37.1408 222.129 36.6051C222.152 36.4935 222.174 36.0471 222.174 35.2435H224.205V35.5337ZM210.634 15.1542C210.634 16.181 210.344 16.7167 209.674 16.7167C209.027 16.7167 208.714 16.181 208.714 15.1542V10.4667C208.714 9.43994 209.027 8.92655 209.674 8.92655C210.344 8.92655 210.634 9.43994 210.634 10.4667V15.1542ZM226.683 31.9176C226.683 29.3283 226.683 26.6051 226.103 24.1051C225.701 22.3417 224.25 21.0471 222.531 20.8462C218.424 20.3998 214.272 20.3998 210.143 20.3998C206.013 20.3998 201.862 20.3998 197.777 20.8462C196.036 21.0471 194.607 22.3417 194.183 24.1051C193.625 26.6051 193.603 29.3283 193.603 31.9176C193.603 34.4846 193.603 37.2301 194.183 39.7301C194.585 41.4935 196.036 42.7882 197.754 42.9667C201.862 43.4355 206.013 43.4355 210.143 43.4355C214.272 43.4355 218.424 43.4355 222.531 42.9667C224.25 42.7882 225.679 41.4935 226.103 39.7301C226.661 37.2301 226.683 34.4846 226.683 31.9176ZM204.406 3.43547L202.888 9.30601L201.304 3.43547H198.938C199.406 4.8194 199.897 6.22565 200.388 7.60958C201.103 9.68548 201.549 11.248 201.75 12.3417V18.3908H203.982V12.3417L206.683 3.43547H204.406ZM212.665 10.8685C212.665 9.68548 212.464 8.81494 212.04 8.2569C211.482 7.49798 210.701 7.11851 209.674 7.11851C208.67 7.11851 207.888 7.49798 207.33 8.2569C206.906 8.81494 206.705 9.68548 206.705 10.8685V14.7748C206.705 15.9578 206.906 16.8283 207.33 17.4087C207.888 18.1676 208.67 18.5471 209.674 18.5471C210.701 18.5471 211.482 18.1676 212.04 17.4087C212.464 16.8507 212.665 15.9578 212.665 14.7748V10.8685ZM220.143 7.25244H218.112V15.7569C217.665 16.4042 217.241 16.7167 216.839 16.7167C216.571 16.7167 216.415 16.5382 216.371 16.2257C216.348 16.181 216.348 15.9132 216.348 15.4444V7.25244H214.317V16.0471C214.317 16.8507 214.384 17.3864 214.496 17.7212C214.696 18.2792 215.165 18.5471 215.812 18.5471C216.549 18.5471 217.308 18.1007 218.112 17.1632V18.3908H220.143V7.25244Z" fill="black"/>
<path d="M291.161 12.5426C289.866 13.1007 288.46 13.5024 287.009 13.6587C288.504 12.7658 289.643 11.3596 290.179 9.68548C288.795 10.5114 287.232 11.114 285.603 11.4265C284.286 10.0203 282.411 9.14976 280.335 9.14976C276.339 9.14976 273.125 12.3864 273.125 16.3596C273.125 16.9176 273.192 17.4757 273.304 18.0114C267.321 17.6989 261.987 14.8417 258.438 10.4667C257.812 11.5382 257.455 12.7658 257.455 14.1051C257.455 16.6051 258.728 18.8149 260.67 20.1096C259.487 20.0649 258.371 19.7301 257.411 19.1944C257.411 19.2167 257.411 19.2614 257.411 19.2837C257.411 22.7882 259.888 25.6899 263.192 26.3596C262.589 26.5158 261.942 26.6051 261.295 26.6051C260.826 26.6051 260.379 26.5605 259.933 26.4935C260.848 29.3507 263.504 31.4265 266.674 31.4935C264.196 33.4355 261.094 34.5739 257.723 34.5739C257.121 34.5739 256.562 34.5515 255.982 34.4846C259.174 36.5382 262.969 37.7212 267.054 37.7212C280.312 37.7212 287.567 26.739 287.567 17.2078C287.567 16.8953 287.567 16.5828 287.545 16.2703C288.951 15.2435 290.179 13.9712 291.161 12.5426Z" fill="black"/>
</svg>
