<svg width="43" height="44" viewBox="0 0 43 44" fill="none" xmlns="http://www.w3.org/2000/svg">
<path d="M24.7143 10.779L32.6496 18.7143L18.2857 33.0781L10.3504 25.1429L24.7143 10.779ZM19.4157 35.3633L34.9347 19.8443C35.2528 19.5262 35.4118 19.1496 35.4118 18.7143C35.4118 18.279 35.2528 17.9023 34.9347 17.5843L25.8443 8.49386C25.543 8.19252 25.1663 8.04185 24.7143 8.04185C24.2623 8.04185 23.8856 8.19252 23.5843 8.49386L8.06529 24.0128C7.74721 24.3309 7.58817 24.7076 7.58817 25.1429C7.58817 25.5781 7.74721 25.9548 8.06529 26.2729L17.1557 35.3633C17.457 35.6646 17.8337 35.8153 18.2857 35.8153C18.7377 35.8153 19.1144 35.6646 19.4157 35.3633ZM41.74 19.3672L18.9637 42.1685C18.3443 42.7879 17.5826 43.0977 16.6786 43.0977C15.7913 43.0977 15.0379 42.7879 14.4185 42.1685L11.2545 39.0045C12.192 38.067 12.6607 36.9286 12.6607 35.5893C12.6607 34.25 12.192 33.1116 11.2545 32.1741C10.317 31.2366 9.17857 30.7679 7.83929 30.7679C6.5 30.7679 5.36161 31.2366 4.42411 32.1741L1.28516 29.01C0.665737 28.3906 0.356027 27.6373 0.356027 26.75C0.356027 25.846 0.665737 25.0843 1.28516 24.4648L24.0614 1.71373C24.6808 1.09431 25.4342 0.784597 26.3214 0.784597C27.2254 0.784597 27.9872 1.09431 28.6066 1.71373L31.7455 4.85268C30.808 5.79018 30.3393 6.92857 30.3393 8.26786C30.3393 9.60714 30.808 10.7455 31.7455 11.683C32.683 12.6205 33.8214 13.0893 35.1607 13.0893C36.5 13.0893 37.6384 12.6205 38.5759 11.683L41.74 14.822C42.3594 15.4414 42.6691 16.2031 42.6691 17.1071C42.6691 17.9944 42.3594 18.7478 41.74 19.3672Z" fill="white"/>
</svg>
