<svg width="47" height="75" viewBox="0 0 47 75" fill="none" xmlns="http://www.w3.org/2000/svg">
<g filter="url(#filter0_d)">
<path d="M40.5703 18.1094C41.0391 18.6302 41.1302 19.2031 40.8438 19.8281L19.75 65.0234C19.4115 65.6745 18.8646 66 18.1094 66C18.0052 66 17.8229 65.974 17.5625 65.9219C17.1198 65.7917 16.7813 65.5443 16.5469 65.1797C16.3385 64.8151 16.2865 64.4245 16.3906 64.0078L24.0859 32.4453L8.22656 36.3906C8.1224 36.4167 7.96615 36.4297 7.75781 36.4297C7.28906 36.4297 6.88542 36.2865 6.54688 36C6.07812 35.6094 5.90885 35.1016 6.03906 34.4766L13.8906 2.25C13.9948 1.88541 14.2031 1.58593 14.5156 1.35156C14.8281 1.11719 15.1927 0.999997 15.6094 0.999997H28.4219C28.9167 0.999997 29.3333 1.16927 29.6719 1.50781C30.0104 1.82031 30.1797 2.19791 30.1797 2.64062C30.1797 2.84895 30.1146 3.08333 29.9844 3.34375L23.3047 21.4297L38.7734 17.6016C38.9818 17.5495 39.138 17.5234 39.2422 17.5234C39.737 17.5234 40.1797 17.7187 40.5703 18.1094Z" fill="#FFB600"/>
<path d="M40.5703 18.1094L41.3136 17.4404L41.296 17.4209L41.2774 17.4023L40.5703 18.1094ZM40.8438 19.8281L41.7499 20.2511L41.7528 20.2448L40.8438 19.8281ZM19.75 65.0234L20.6372 65.4848L20.6471 65.4658L20.6562 65.4464L19.75 65.0234ZM17.5625 65.9219L17.2803 66.8812L17.3229 66.8938L17.3664 66.9025L17.5625 65.9219ZM16.5469 65.1797L15.6786 65.6758L15.6916 65.6985L15.7057 65.7204L16.5469 65.1797ZM16.3906 64.0078L17.3608 64.2504L17.3622 64.2447L16.3906 64.0078ZM24.0859 32.4453L25.0575 32.6822L25.4492 31.0757L23.8445 31.4749L24.0859 32.4453ZM8.22656 36.3906L7.98515 35.4202L7.98403 35.4205L8.22656 36.3906ZM6.54688 36L7.19283 35.2366L7.18706 35.2318L6.54688 36ZM6.03906 34.4766L5.06748 34.2399L5.06351 34.2562L5.06008 34.2726L6.03906 34.4766ZM13.8906 2.25L12.9291 1.97527L12.9237 1.99418L12.919 2.01328L13.8906 2.25ZM14.5156 1.35156L15.1156 2.15156L15.1156 2.15156L14.5156 1.35156ZM29.6719 1.50781L28.9648 2.21492L28.9789 2.22905L28.9936 2.24261L29.6719 1.50781ZM29.9844 3.34375L29.0899 2.89653L29.0654 2.94571L29.0463 2.99729L29.9844 3.34375ZM23.3047 21.4297L22.3666 21.0832L21.7127 22.8538L23.5449 22.4004L23.3047 21.4297ZM38.7734 17.6016L39.0137 18.5723L39.016 18.5717L38.7734 17.6016ZM39.827 18.7783C39.9594 18.9254 39.9932 19.0274 40.0027 19.0868C40.0119 19.1447 40.0112 19.2445 39.9347 19.4115L41.7528 20.2448C41.9627 19.7868 42.0598 19.2876 41.9778 18.7726C41.8961 18.2591 41.65 17.8142 41.3136 17.4404L39.827 18.7783ZM39.9376 19.4052L18.8438 64.6005L20.6562 65.4464L41.7499 20.2511L39.9376 19.4052ZM18.8628 64.5621C18.7659 64.7483 18.6649 64.8428 18.5745 64.8966C18.4824 64.9513 18.3408 65 18.1094 65V67C18.6332 67 19.1426 66.8859 19.5974 66.6152C20.0539 66.3434 20.3955 65.9496 20.6372 65.4848L18.8628 64.5621ZM18.1094 65C18.1273 65 18.11 65.0011 18.036 64.9905C17.9692 64.981 17.8779 64.9651 17.7586 64.9413L17.3664 66.9025C17.6223 66.9536 17.8941 67 18.1094 67V65ZM17.8447 64.9625C17.6164 64.8954 17.4836 64.7876 17.3881 64.6389L15.7057 65.7204C16.0789 66.301 16.6232 66.688 17.2803 66.8812L17.8447 64.9625ZM17.4151 64.6835C17.3379 64.5485 17.3176 64.4232 17.3608 64.2503L15.4205 63.7653C15.2554 64.4257 15.3392 65.0817 15.6786 65.6758L17.4151 64.6835ZM17.3622 64.2447L25.0575 32.6822L23.1144 32.2084L15.4191 63.7709L17.3622 64.2447ZM23.8445 31.4749L7.98515 35.4202L8.46797 37.361L24.3273 33.4157L23.8445 31.4749ZM7.98403 35.4205C8.00216 35.4159 7.99466 35.4195 7.94821 35.4234C7.90496 35.427 7.84265 35.4297 7.75781 35.4297V37.4297C7.98661 37.4297 8.24253 37.4174 8.46909 37.3608L7.98403 35.4205ZM7.75781 35.4297C7.51097 35.4297 7.33995 35.3611 7.19282 35.2366L5.90093 36.7634C6.43088 37.2118 7.06715 37.4297 7.75781 37.4297V35.4297ZM7.18706 35.2318C7.07509 35.1385 7.03499 35.0638 7.01704 35.0099C6.9982 34.9534 6.98202 34.8535 7.01804 34.6805L5.06008 34.2726C4.9659 34.7247 4.96925 35.1911 5.11968 35.6424C5.271 36.0964 5.54991 36.4709 5.90669 36.7682L7.18706 35.2318ZM7.01064 34.7133L14.8622 2.48671L12.919 2.01328L5.06748 34.2399L7.01064 34.7133ZM14.8521 2.52472C14.8944 2.37671 14.9721 2.25924 15.1156 2.15156L13.9156 0.551559C13.4342 0.912628 13.0951 1.39412 12.9291 1.97527L14.8521 2.52472ZM15.1156 2.15156C15.2431 2.05593 15.3937 2 15.6094 2V-2.98023e-06C14.9917 -2.98023e-06 14.4131 0.178443 13.9156 0.551563L15.1156 2.15156ZM15.6094 2H28.4219V-2.98023e-06H15.6094V2ZM28.4219 2C28.6614 2 28.8207 2.07081 28.9648 2.21492L30.379 0.800704C29.846 0.267727 29.172 -2.98023e-06 28.4219 -2.98023e-06V2ZM28.9936 2.24261C29.1365 2.37451 29.1797 2.48959 29.1797 2.64062H31.1797C31.1797 1.90623 30.8843 1.26611 30.3502 0.773007L28.9936 2.24261ZM29.1797 2.64062C29.1797 2.64059 29.1797 2.64559 29.1781 2.65626C29.1765 2.667 29.1734 2.68312 29.1673 2.70501C29.155 2.74958 29.1317 2.81298 29.0899 2.89653L30.8788 3.79096C31.0525 3.44359 31.1797 3.05334 31.1797 2.64062H29.1797ZM29.0463 2.99729L22.3666 21.0832L24.2428 21.7761L30.9224 3.6902L29.0463 2.99729ZM23.5449 22.4004L39.0137 18.5723L38.5332 16.6308L23.0645 20.459L23.5449 22.4004ZM39.016 18.5717C39.1027 18.55 39.1667 18.5368 39.2113 18.5294C39.26 18.5212 39.2657 18.5234 39.2422 18.5234V16.5234C39.0089 16.5234 38.7533 16.5758 38.5309 16.6314L39.016 18.5717ZM39.2422 18.5234C39.4398 18.5234 39.6362 18.5895 39.8632 18.8165L41.2774 17.4023C40.7232 16.848 40.0342 16.5234 39.2422 16.5234V18.5234Z" fill="black"/>
</g>
<defs>
<filter id="filter0_d" x="0.996643" y="0" width="45.0102" height="75" filterUnits="userSpaceOnUse" color-interpolation-filters="sRGB">
<feFlood flood-opacity="0" result="BackgroundImageFix"/>
<feColorMatrix in="SourceAlpha" type="matrix" values="0 0 0 0 0 0 0 0 0 0 0 0 0 0 0 0 0 0 127 0"/>
<feOffset dy="4"/>
<feGaussianBlur stdDeviation="2"/>
<feColorMatrix type="matrix" values="0 0 0 0 0 0 0 0 0 0 0 0 0 0 0 0 0 0 0.25 0"/>
<feBlend mode="normal" in2="BackgroundImageFix" result="effect1_dropShadow"/>
<feBlend mode="normal" in="SourceGraphic" in2="effect1_dropShadow" result="shape"/>
</filter>
</defs>
</svg>
